<svg width="69" height="69" viewBox="0 0 69 69" fill="none" xmlns="http://www.w3.org/2000/svg">
<g opacity="0.5">
<rect width="68.2" height="68.2" rx="34.1" transform="matrix(-1.01173 0 0 1.01173 69 0)" fill="white"/>
<path d="M24.2593 35.3318C23.7999 34.8724 23.7999 34.1278 24.2593 33.6684L31.7441 26.1836C32.2034 25.7243 32.9481 25.7243 33.4074 26.1836C33.8668 26.6429 33.8668 27.3876 33.4074 27.8469L26.7542 34.5001L33.4074 41.1533C33.8668 41.6126 33.8668 42.3573 33.4074 42.8166C32.9481 43.276 32.2034 43.276 31.7441 42.8166L24.2593 35.3318ZM43.9091 35.6762L25.0909 35.6762L25.0909 33.324L43.9091 33.324L43.9091 35.6762Z" fill="#020202"/>
</g>
</svg>
