<svg width="1721" height="1409" viewBox="0 0 1721 1409" fill="none" xmlns="http://www.w3.org/2000/svg">
<g opacity="0.02">
<circle cx="26.6134" cy="26.6134" r="26.6134" fill="white"/>
<circle cx="26.6134" cy="221.778" r="26.6134" fill="white"/>
<circle cx="26.6134" cy="415.169" r="26.6134" fill="white"/>
<ellipse cx="26.6134" cy="608.56" rx="26.6134" ry="24.8392" fill="white"/>
<ellipse cx="26.6134" cy="800.176" rx="26.6134" ry="24.8392" fill="white"/>
<circle cx="26.6134" cy="993.567" r="26.6134" fill="white"/>
<circle cx="26.6134" cy="1186.96" r="26.6134" fill="white"/>
<circle cx="26.6134" cy="1382.12" r="26.6134" fill="white"/>
<ellipse cx="177.423" cy="26.6135" rx="24.8392" ry="26.6134" fill="white"/>
<ellipse cx="177.423" cy="221.778" rx="24.8392" ry="26.6134" fill="white"/>
<ellipse cx="177.423" cy="415.169" rx="24.8392" ry="26.6134" fill="white"/>
<circle cx="177.423" cy="608.56" r="24.8392" fill="white"/>
<circle cx="177.423" cy="800.176" r="24.8392" fill="white"/>
<ellipse cx="177.423" cy="993.567" rx="24.8392" ry="26.6134" fill="white"/>
<ellipse cx="177.423" cy="1186.96" rx="24.8392" ry="26.6134" fill="white"/>
<ellipse cx="177.423" cy="1382.12" rx="24.8392" ry="26.6134" fill="white"/>
<circle cx="328.232" cy="26.6135" r="26.6134" fill="white"/>
<circle cx="328.232" cy="221.778" r="26.6134" fill="white"/>
<circle cx="328.232" cy="415.169" r="26.6134" fill="white"/>
<ellipse cx="328.232" cy="608.56" rx="26.6134" ry="24.8392" fill="white"/>
<ellipse cx="328.232" cy="800.176" rx="26.6134" ry="24.8392" fill="white"/>
<circle cx="328.232" cy="993.567" r="26.6134" fill="white"/>
<circle cx="328.232" cy="1186.96" r="26.6134" fill="white"/>
<circle cx="328.232" cy="1382.12" r="26.6134" fill="white"/>
<circle cx="480.815" cy="26.6135" r="26.6134" fill="white"/>
<circle cx="480.815" cy="221.778" r="26.6134" fill="white"/>
<circle cx="480.815" cy="415.169" r="26.6134" fill="white"/>
<ellipse cx="480.815" cy="608.56" rx="26.6134" ry="24.8392" fill="white"/>
<ellipse cx="480.815" cy="800.176" rx="26.6134" ry="24.8392" fill="white"/>
<circle cx="480.815" cy="993.567" r="26.6134" fill="white"/>
<circle cx="480.815" cy="1186.96" r="26.6134" fill="white"/>
<circle cx="480.815" cy="1382.12" r="26.6134" fill="white"/>
<circle cx="631.625" cy="26.6135" r="26.6134" fill="white"/>
<circle cx="631.625" cy="221.778" r="26.6134" fill="white"/>
<circle cx="631.625" cy="415.169" r="26.6134" fill="white"/>
<ellipse cx="631.625" cy="608.56" rx="26.6134" ry="24.8392" fill="white"/>
<ellipse cx="631.625" cy="800.176" rx="26.6134" ry="24.8392" fill="white"/>
<circle cx="631.625" cy="993.567" r="26.6134" fill="white"/>
<circle cx="631.625" cy="1186.96" r="26.6134" fill="white"/>
<circle cx="631.625" cy="1382.12" r="26.6134" fill="white"/>
<circle cx="784.208" cy="26.6135" r="26.6134" fill="white"/>
<circle cx="784.208" cy="221.778" r="26.6134" fill="white"/>
<circle cx="784.208" cy="415.169" r="26.6134" fill="white"/>
<ellipse cx="784.208" cy="608.56" rx="26.6134" ry="24.8392" fill="white"/>
<ellipse cx="784.208" cy="800.176" rx="26.6134" ry="24.8392" fill="white"/>
<circle cx="784.208" cy="993.567" r="26.6134" fill="white"/>
<circle cx="784.208" cy="1186.96" r="26.6134" fill="white"/>
<circle cx="784.208" cy="1382.12" r="26.6134" fill="white"/>
<circle cx="936.792" cy="26.6135" r="26.6134" fill="white"/>
<circle cx="936.792" cy="221.778" r="26.6134" fill="white"/>
<circle cx="936.792" cy="415.169" r="26.6134" fill="white"/>
<ellipse cx="936.792" cy="608.56" rx="26.6134" ry="24.8392" fill="white"/>
<ellipse cx="936.792" cy="800.176" rx="26.6134" ry="24.8392" fill="white"/>
<circle cx="936.792" cy="993.567" r="26.6134" fill="white"/>
<circle cx="936.792" cy="1186.96" r="26.6134" fill="white"/>
<circle cx="936.792" cy="1382.12" r="26.6134" fill="white"/>
<circle cx="1089.38" cy="26.6135" r="26.6134" fill="white"/>
<circle cx="1089.38" cy="221.778" r="26.6134" fill="white"/>
<circle cx="1089.38" cy="415.169" r="26.6134" fill="white"/>
<ellipse cx="1089.38" cy="608.56" rx="26.6134" ry="24.8392" fill="white"/>
<ellipse cx="1089.38" cy="800.176" rx="26.6134" ry="24.8392" fill="white"/>
<circle cx="1089.38" cy="993.567" r="26.6134" fill="white"/>
<circle cx="1089.38" cy="1186.96" r="26.6134" fill="white"/>
<circle cx="1089.38" cy="1382.12" r="26.6134" fill="white"/>
<circle cx="1240.18" cy="26.6135" r="26.6134" fill="white"/>
<circle cx="1240.18" cy="221.778" r="26.6134" fill="white"/>
<circle cx="1240.18" cy="415.169" r="26.6134" fill="white"/>
<ellipse cx="1240.18" cy="608.56" rx="26.6134" ry="24.8392" fill="white"/>
<ellipse cx="1240.18" cy="800.176" rx="26.6134" ry="24.8392" fill="white"/>
<circle cx="1240.18" cy="993.567" r="26.6134" fill="white"/>
<circle cx="1240.18" cy="1186.96" r="26.6134" fill="white"/>
<circle cx="1240.18" cy="1382.12" r="26.6134" fill="white"/>
<circle cx="1392.77" cy="26.6135" r="26.6134" fill="white"/>
<circle cx="1392.77" cy="221.778" r="26.6134" fill="white"/>
<circle cx="1392.77" cy="415.169" r="26.6134" fill="white"/>
<ellipse cx="1392.77" cy="608.56" rx="26.6134" ry="24.8392" fill="white"/>
<ellipse cx="1392.77" cy="800.176" rx="26.6134" ry="24.8392" fill="white"/>
<circle cx="1392.77" cy="993.567" r="26.6134" fill="white"/>
<circle cx="1392.77" cy="1186.96" r="26.6134" fill="white"/>
<circle cx="1392.77" cy="1382.12" r="26.6134" fill="white"/>
<ellipse cx="1543.58" cy="26.6135" rx="24.8392" ry="26.6134" fill="white"/>
<ellipse cx="1543.58" cy="221.778" rx="24.8392" ry="26.6134" fill="white"/>
<ellipse cx="1543.58" cy="415.169" rx="24.8392" ry="26.6134" fill="white"/>
<circle cx="1543.58" cy="608.56" r="24.8392" fill="white"/>
<circle cx="1543.58" cy="800.176" r="24.8392" fill="white"/>
<ellipse cx="1543.58" cy="993.567" rx="24.8392" ry="26.6134" fill="white"/>
<ellipse cx="1543.58" cy="1186.96" rx="24.8392" ry="26.6134" fill="white"/>
<ellipse cx="1543.58" cy="1382.12" rx="24.8392" ry="26.6134" fill="white"/>
<circle cx="1694.39" cy="26.6135" r="26.6134" fill="white"/>
<circle cx="1694.39" cy="221.778" r="26.6134" fill="white"/>
<circle cx="1694.39" cy="415.169" r="26.6134" fill="white"/>
<ellipse cx="1694.39" cy="608.56" rx="26.6134" ry="24.8392" fill="white"/>
<ellipse cx="1694.39" cy="800.176" rx="26.6134" ry="24.8392" fill="white"/>
<circle cx="1694.39" cy="993.567" r="26.6134" fill="white"/>
<circle cx="1694.39" cy="1186.96" r="26.6134" fill="white"/>
<circle cx="1694.39" cy="1382.12" r="26.6134" fill="white"/>
</g>
</svg>
